<?xml version="1.0" standalone="no"?><!DOCTYPE svg PUBLIC "-//W3C//DTD SVG 1.1//EN" "http://www.w3.org/Graphics/SVG/1.1/DTD/svg11.dtd"><svg class="icon" width="200px" height="200.00px" viewBox="0 0 1024 1024" version="1.1" xmlns="http://www.w3.org/2000/svg"><path d="M640 640c64 0 106.666667 40.106667 106.666667 85.333333h128V85.333333h-128c0 42.666667-42.666667 85.333333-106.666667 85.333334s-106.666667-42.666667-106.666667-85.333334h-128v298.666667M640 938.666667h-128c0-45.226667-42.666667-85.333333-106.666667-85.333334s-106.666667 40.106667-106.666666 85.333334H170.666667V298.666667h128c0 42.666667 42.666667 85.333333 106.666666 85.333333s106.666667-42.666667 106.666667-85.333333h128v640zM298.666667 512m-42.666667 0a42.666667 42.666667 0 1 0 85.333333 0 42.666667 42.666667 0 1 0-85.333333 0ZM405.333333 512m-42.666666 0a42.666667 42.666667 0 1 0 85.333333 0 42.666667 42.666667 0 1 0-85.333333 0ZM512 512m-42.666667 0a42.666667 42.666667 0 1 0 85.333334 0 42.666667 42.666667 0 1 0-85.333334 0Z" /></svg>